# AST/ASF file generated using VICON BodyLanguage
# -----------------------------------------------
:version 1.10
:name VICON
:units
  mass 1.0
  length 0.45
  angle deg
:documentation
   .ast/.asf automatically generated from VICON data using
   VICON BodyBuilder and BodyLanguage model FoxedUp or BRILLIANT.MOD
:root
   order TX TY TZ RX RY RZ
   axis XYZ
   position 0 0 0  
   orientation 0 0 0 
:bonedata
  begin
     id 1 
     name lhipjoint
     direction 0.627457 -0.725269 0.283342 
     length 2.53237 
     axis 0 0 0  XYZ
  end
  begin
     id 2 
     name lfemur
     direction 0.34202 -0.939693 0  
     length 7.32496  
     axis 0 0 20  XYZ
    dof rx ry rz
    limits (-160.0 20.0)
           (-70.0 70.0)
           (-60.0 70.0)
  end
  begin
     id 3 
     name ltibia
     direction 0.34202 -0.939693 0   
     length 7.69674   
     axis 0 0 20   XYZ
    dof rx
    limits (-10.0 170.0)
  end
  begin
     id 4 
     name lfoot
     direction 0.127289 -0.349722 0.928166   
     length 1.8612   
     axis -90 7.62852e-016 20   XYZ
    dof rx rz
    limits (-45.0 90.0)
           (-70.0 20.0)
  end
  begin
     id 5 
     name ltoes
     direction 1.53561e-011 -4.21864e-011 1   
     length 0.925608   
     axis -90 7.62852e-016 20   XYZ
    dof rx
    limits (-90.0 20.0)
  end
  begin
     id 6 
     name rhipjoint
     direction -0.609094 -0.738725 0.288599   
     length 2.48624  
     axis 0 0 0  XYZ 
  end
  begin
     id 7 
     name rfemur
     direction -0.34202 -0.939693 0   
     length 7.44259   
     axis 0 0 -20   XYZ
    dof rx ry rz
    limits (-160.0 20.0)
           (-70.0 70.0)
           (-70.0 60.0)
  end
  begin
     id 8 
     name rtibia
     direction -0.34202 -0.939693 0   
     length 7.7781   
     axis 0 0 -20   XYZ
    dof rx
    limits (-10.0 170.0)
 end
 begin
     id 9 
     name rfoot
     direction -0.107015 -0.294021 0.949789   
     length 2.14741  
     axis -90 -7.62852e-016 -20   XYZ
    dof rx rz
    limits (-45.0 90.0)
           (-20.0 70.0)
  end
  begin
     id 10 
     name rtoes
     direction -1.53497e-011 -4.21924e-011 1   
     length 1.0706   
     axis -90 -7.62852e-016 -20   XYZ
    dof rx
    limits (-90.0 20.0)
  end
  begin
     id 11 
     name lowerback
     direction -0.0142066 0.998112 -0.0597545   
     length 1.86627   
     axis 0 0 0   XYZ
    dof rx ry rz
    limits (-20.0 45.0)
           (-30.0 30.0)
           (-30.0 30.0)
  end
  begin
     id 12 
     name upperback
     direction 0.00547294 0.999744 0.0219437   
     length 1.86272   
     axis 0 0 0   XYZ
    dof rx ry rz
    limits (-20.0 45.0)
           (-30.0 30.0)
           (-30.0 30.0)
  end
  begin
     id 13 
     name thorax
     direction 0.0116162 0.998704 0.0495538   
     length 1.8703   
     axis 0 0 0   XYZ
    dof rx ry rz
    limits (-20.0 45.0)
           (-30.0 30.0)
           (-30.0 30.0)
  end
  begin
     id 14 
     name lowerneck
     direction -0.0106574 0.998739 0.0490586   
     length 1.8074   
     axis 0 0 0   XYZ
    dof rx ry rz
    limits (-20.0 45.0)
           (-30.0 30.0)
           (-30.0 30.0)
  end
  begin
     id 15 
     name upperneck
     direction 0.030527 0.976587 -0.212944   
     length 1.80681   
     axis 0 0 0   XYZ
    dof rx ry rz
    limits (-20.0 45.0)
           (-30.0 30.0)
           (-30.0 30.0)
  end
  begin
     id 16
     name head
     direction 0.00869225 0.997035 -0.0764531  
     length 1.8313  
     axis 0 0 0   XYZ
    dof rx ry rz
    limits (-20.0 45.0)
           (-30.0 30.0)
           (-30.0 30.0)
  end
  begin
     id 17 
     name lclavicle
     direction 0.915958 0.399447 0.0382386  
     length 3.78965  
     axis 0 0 0   XYZ
    dof ry rz
    limits (-20.0 10.0)
           (0.0 20.0)
  end
  begin
     id 18 
     name lhumerus
     direction 1 -4.48967e-011 3.19303e-027   
     length 4.78095   
     axis -180 -30 -90   XYZ
    dof rx ry rz
    limits (-60.0 90.0)
           (-90.0 90.0)
           (-90.0 90.0)
  end
  begin
     id 19
     name lradius
     direction 1 -4.48967e-011 -3.77974e-027   
     length 3.58615   
     axis -180 -30 -90   XYZ
    dof rx
    limits (-10.0 170.0)
  end
  begin
     id 20
     name lwrist
     direction 1 -4.48927e-011 1.2807e-027   
     length 1.79307   
     axis 1.91374e-015 90 90   XYZ
    dof ry
    limits (-180.0 0.0)
 end
  begin
     id 21 
     name lhand
     direction 1 -4.49036e-011 2.5614e-027   
     length 0.659812   
     axis -1.63439e-015 90 90   XYZ
    dof rx rz
    limits (-90.0 90.0)
           (-45.0 45.0)
  end
  begin
     id 22 
     name lfingers
     direction 1 -4.49052e-011 5.1228e-027   
     length 0.531957   
     axis -3.26879e-015 90 90   XYZ
    dof rx
    limits (0.0 90.0)
  end
  begin
     id 23
     name lthumb
     direction 0.707107 -6.35012e-011 0.707107   
     length 0.763787   
     axis -90 45 2.85299e-015   XYZ
    dof rx rz
    limits (-45.0 45.0)
           (-45.0 45.0)
  end
  begin
     id 24 
     name rclavicle
     direction -0.895351 0.435135 0.0948887   
     length 3.70497  
     axis 0 0 0   XYZ 
    dof ry rz
    limits (-10.0 20.0)
           (-20.0 0.0)
  end
  begin
     id 25 
     name rhumerus
     direction -1 -4.48971e-011 2.38946e-027  
     length 4.48913   
     axis -180 30 90   XYZ
    dof rx ry rz
    limits (-90.0 60.0)
           (-90.0 90.0)
           (-90.0 90.0)
  end
  begin
     id 26 
     name rradius
     direction -1 -4.4895e-011 4.38668e-027   
     length 3.7051   
     axis -180 30 90   XYZ
    dof rx
    limits (-10.0 170.0)
  end
  begin
     id 27 
     name rwrist
     direction -1 -4.49007e-011 1.2807e-027   
     length 1.85255   
     axis 1.91374e-015 -90 -90   XYZ
    dof ry
    limits (-180.0 0.0)
  end
  begin
     id 28
     name rhand
     direction -1 -4.48851e-011 2.5614e-027   
     length 0.449136   
     axis -1.63439e-015 -90 -90   XYZ
    dof rx rz
    limits (-90.0 90.0)
           (-45.0 45.0)
  end
  begin
     id 29
     name rfingers
     direction -1 -4.49128e-011 5.1228e-027   
     length 0.362105   
     axis -3.26879e-015 -90 -90   XYZ
    dof rx
    limits (0.0 90.0)
  end
  begin
     id 30
     name rthumb
     direction -0.707107 -6.34851e-011 0.707107   
     length 0.519912   
     axis -90 -45 -2.85299e-015   XYZ
    dof rx rz
    limits (-45.0 45.0)
           (-45.0 45.0)
  end
:hierarchy
  begin
    root lhipjoint rhipjoint lowerback
    lhipjoint lfemur
    lfemur ltibia
    ltibia lfoot
    lfoot ltoes
    rhipjoint rfemur
    rfemur rtibia
    rtibia rfoot
    rfoot rtoes
    lowerback upperback
    upperback thorax
    thorax lowerneck lclavicle rclavicle
    lowerneck upperneck
    upperneck head
    lclavicle lhumerus
    lhumerus lradius
    lradius lwrist
    lwrist lhand lthumb
    lhand lfingers
    rclavicle rhumerus
    rhumerus rradius
    rradius rwrist
    rwrist rhand rthumb
    rhand rfingers
  end

#!OML:ASF I:\Actors\actors\Patient Classification 2\Patient 1\Session 1\actor1.ASF
:FULLY-SPECIFIED
:DEGREES
46
root -0.779996 18.6649 6.18245 2.44985 -3.07278 -4.08914
lowerback 4.23938 0.688142 1.38332
upperback -1.17808 1.02288 0.781829
thorax -3.58112 0.487295 -0.0448305
lowerneck -8.74739 -1.24944 0.538409
upperneck 18.7175 -2.23847 2.19554
head 7.19043 -0.846289 0.426032
rclavicle -9.48576e-015 4.37326e-015
rhumerus -46.8071 -1.49356 -87.1581
rradius 41.2453
rwrist 14.4158
rhand 8.21153 -29.6352
rfingers 7.12502
rthumb 33.4281 -56.5441
lclavicle -9.48576e-015 4.37326e-015
lhumerus -44.1279 -3.85486 92.354
lradius 41.6068
lwrist 0.342262
lhand -1.18501 -21.1241
lfingers 7.12502
lthumb 24.4549 7.33487
rfemur 7.34362 4.66863 18.5591
rtibia 1.74931e-014
rfoot -17.6671 -10.6486
rtoes -7.23485
lfemur -4.39808 -5.03604 -9.92991
ltibia 22.5552
lfoot -23.6613 12.6491
ltoes -55.7959
47
root -0.779868 18.6646 6.18643 2.45188 -3.06437 -4.09608
lowerback 4.19541 0.69362 1.39746
upperback -1.2035 1.03014 0.772353
thorax -3.5821 0.490416 -0.0626117
lowerneck -8.8105 -1.25506 0.566131
upperneck 18.8342 -2.25305 2.18547
head 7.23939 -0.850276 0.416327
rclavicle 2.66682e-014 1.74931e-014
rhumerus -46.8233 -1.50477 -87.1759
rradius 41.2191
rwrist 14.4511
rhand 8.09215 -29.5842
rfingers 7.12502
rthumb 33.3146 -56.5175
lclavicle 2.66682e-014 1.74931e-014
lhumerus -44.1655 -3.86275 92.3276
lradius 41.5747
lwrist 0.348258
lhand -1.10205 -21.0721
lfingers 7.12502
lthumb 24.5344 7.37613
rfemur 7.36704 4.66052 18.5646
rtibia -1.11319e-014
rfoot -17.6858 -10.616
rtoes -7.197
lfemur -4.38097 -5.01584 -9.92255
ltibia 22.5472
lfoot -23.6704 12.6249
ltoes -55.822
48
root -0.780112 18.6642 6.19048 2.49372 -3.0317 -4.12847
lowerback 4.11753 0.691861 1.43644
upperback -1.25321 1.02911 0.772199
thorax -3.5889 0.488851 -0.0838132
lowerneck -8.79196 -1.27052 0.615973
upperneck 18.9045 -2.27831 2.1545
head 7.25833 -0.860901 0.395792
rclavicle -1.32937e-015 3.57812e-015
rhumerus -46.8629 -1.48985 -87.2035
rradius 41.1921
rwrist 14.433
rhand 7.98108 -29.5478
rfingers 7.12502
rthumb 33.209 -56.5036
lclavicle -1.32937e-015 3.57812e-015
lhumerus -44.2015 -3.85644 92.3027
lradius 41.514
lwrist 0.316799
lhand -1.05599 -21.062
lfingers 7.12502
lthumb 24.5785 7.38026
rfemur 7.34454 4.62792 18.6005
rtibia 1.43125e-014
rfoot -17.6972 -10.6107
rtoes -7.26092
lfemur -4.41184 -5.00203 -9.87729
ltibia 22.5432
lfoot -23.6797 12.577
ltoes -55.8328
49
root -0.779536 18.6644 6.19379 2.52934 -2.9948 -4.13147
lowerback 4.04493 0.681986 1.44195
upperback -1.30208 1.01523 0.765141
thorax -3.59838 0.481539 -0.0925391
lowerneck -8.77814 -1.28265 0.671649
upperneck 18.9768 -2.2995 2.12041
head 7.27861 -0.869382 0.373578
rclavicle 7.78987e-015 -1.31198e-014
rhumerus -46.8732 -1.5207 -87.201
rradius 41.1429
rwrist 14.4772
rhand 8.03213 -29.4806
rfingers 7.12502
rthumb 33.2576 -56.4261
lclavicle 7.78987e-015 -1.31198e-014
lhumerus -44.2378 -3.85648 92.2771
lradius 41.4621
lwrist 0.291369
lhand -1.07418 -21.0441
lfingers 7.12502
lthumb 24.5611 7.40049
rfemur 7.3171 4.59031 18.6022
rtibia -2.06736e-014
rfoot -17.6893 -10.6423
rtoes -7.50246
lfemur -4.45097 -5.00641 -9.87064
ltibia 22.5459
lfoot -23.6658 12.5764
ltoes -55.8474
50
root -0.779049 18.6647 6.19619 2.52167 -2.95934 -4.11245
lowerback 4.03777 0.666664 1.41226
upperback -1.33963 0.993406 0.759143
thorax -3.63379 0.47094 -0.0806967
lowerneck -8.80834 -1.2892 0.686722
upperneck 19.053 -2.31341 2.11839
head 7.30883 -0.873987 0.368856
rclavicle 7.29291e-015 7.15625e-015
rhumerus -46.8347 -1.59988 -87.1653
rradius 41.0364
rwrist 14.5963
rhand 8.13656 -29.4966
rfingers 7.12502
rthumb 33.3569 -56.4209
lclavicle 7.29291e-015 7.15625e-015
lhumerus -44.2646 -3.8305 92.2435
lradius 41.4184
lwrist 0.258395
lhand -1.12441 -20.9814
lfingers 7.12502
lthumb 24.513 7.46971
rfemur 7.33338 4.5545 18.5804
rtibia -6.36111e-015
rfoot -17.6713 -10.6489
rtoes -7.55287
lfemur -4.44744 -5.05083 -9.89491
ltibia 22.5535
lfoot -23.6846 12.5729
ltoes -55.8312
51
root -0.779589 18.6639 6.19818 2.48619 -2.939 -4.11465
lowerback 4.07152 0.655421 1.38657
upperback -1.37071 0.978728 0.77457
thorax -3.68586 0.463989 -0.0500147
lowerneck -8.75941 -1.29761 0.700327
upperneck 19.0207 -2.31854 2.08217
head 7.28896 -0.879533 0.354759
rclavicle -2.42269e-015 -2.38542e-015
rhumerus -46.825 -1.65452 -87.1215
rradius 40.9573
rwrist 14.7108
rhand 8.18181 -29.5546
rfingers 7.12502
rthumb 33.3999 -56.4696
lclavicle -2.42269e-015 -2.38542e-015
lhumerus -44.2752 -3.73434 92.2057
lradius 41.3678
lwrist 0.171959
lhand -1.14788 -20.8987
lfingers 7.12502
lthumb 24.4905 7.55543
rfemur 7.38166 4.53503 18.5881
rtibia 1.11319e-014
rfoot -17.6758 -10.6293
rtoes -7.50397
lfemur -4.40633 -5.13974 -9.89968
ltibia 22.5627
lfoot -23.7241 12.5855
ltoes -55.8047
52
root -0.77952 18.6629 6.20062 2.45961 -2.93744 -4.12856
lowerback 4.07132 0.648864 1.38295
upperback -1.39957 0.970697 0.787747
thorax -3.716 0.459968 -0.0340198
lowerneck -8.66098 -1.31465 0.70584
upperneck 18.9587 -2.33384 2.05203
head 7.25081 -0.890748 0.343514
rclavicle -3.07495e-015 -1.11319e-014
rhumerus -46.8542 -1.68002 -87.0996
rradius 40.9239
rwrist 14.7864
rhand 8.10124 -29.4515
rfingers 7.12502
rthumb 33.3233 -56.3829
lclavicle -3.07495e-015 -1.11319e-014
lhumerus -44.3023 -3.62616 92.1546
lradius 41.3403
lwrist 0.0885343
lhand -1.14493 -20.8605
lfingers 7.12502
lthumb 24.4933 7.59329
rfemur 7.41964 4.53466 18.6049
rtibia -7.95139e-015
rfoot -17.6934 -10.6207
rtoes -7.53481
lfemur -4.36907 -5.21006 -9.89545
ltibia 22.5717
lfoot -23.74 12.6406
ltoes -55.7956
53
root -0.778175 18.6628 6.20269 2.45236 -2.92601 -4.14049
lowerback 4.05388 0.639269 1.39647
upperback -1.43105 0.958967 0.793025
thorax -3.73873 0.453649 -0.035291
lowerneck -8.64663 -1.323 0.652875
upperneck 18.9827 -2.34708 2.1024
head 7.25736 -0.896223 0.367586
rclavicle -3.10601e-015 1.19271e-014
rhumerus -46.8697 -1.67232 -87.0939
rradius 40.8991
rwrist 14.7799
rhand 8.04391 -29.3762
rfingers 7.12502
rthumb 33.2688 -56.3193
lclavicle -3.10601e-015 1.19271e-014
lhumerus -44.341 -3.55216 92.1032
lradius 41.3378
lwrist 0.0118557
lhand -1.11421 -20.8943
lfingers 7.12502
lthumb 24.5227 7.55554
rfemur 7.43421 4.52419 18.6136
rtibia -4.77083e-015
rfoot -17.7103 -10.6034
rtoes -7.38527
lfemur -4.3623 -5.23292 -9.89058
ltibia 22.5837
lfoot -23.7632 12.667
ltoes -55.7836
54
root -0.776986 18.6627 6.20447 2.44424 -2.89301 -4.1393
lowerback 4.04606 0.626941 1.40341
upperback -1.45164 0.943119 0.794605
thorax -3.75571 0.445457 -0.0364362
lowerneck -8.68285 -1.31222 0.583321
upperneck 18.9947 -2.33636 2.1773
head 7.26936 -0.888923 0.404152
rclavicle 8.1626e-015 -5.96354e-015
rhumerus -46.8571 -1.62425 -87.1039
rradius 40.892
rwrist 14.7045
rhand 8.03618 -29.4518
rfingers 7.12502
rthumb 33.2614 -56.3965
lclavicle 8.1626e-015 -5.96354e-015
lhumerus -44.33 -3.50508 92.0646
lradius 41.3067
lwrist -0.0709037
lhand -1.07247 -20.931
lfingers 7.12502
lthumb 24.5627 7.51336
rfemur 7.44906 4.49166 18.6096
rtibia 6.36111e-015
rfoot -17.7223 -10.5936
rtoes -7.23618
lfemur -4.37098 -5.22828 -9.89108
ltibia 22.5973
lfoot -23.7634 12.6425
ltoes -55.7712
55
root -0.776817 18.6625 6.20658 2.44086 -2.85664 -4.14821
lowerback 4.01574 0.61926 1.42447
upperback -1.45695 0.933461 0.794202
thorax -3.74384 0.440209 -0.0476225
lowerneck -8.69538 -1.30598 0.535931
upperneck 18.9356 -2.32765 2.22466
head 7.25337 -0.88452 0.428172
rclavicle 8.38002e-015 -7.15625e-015
rhumerus -46.8432 -1.58679 -87.1224
rradius 40.9029
rwrist 14.6628
rhand 8.03055 -29.5561
rfingers 7.12502
rthumb 33.2561 -56.502
lclavicle 8.38002e-015 -7.15625e-015
lhumerus -44.2761 -3.54518 92.0669
lradius 41.234
lwrist -0.0385729
lhand -1.09611 -20.8935
lfingers 7.12502
lthumb 24.5401 7.5539
rfemur 7.46246 4.45577 18.6205
rtibia -1.43125e-014
rfoot -17.7158 -10.6181
rtoes -7.3738
lfemur -4.38151 -5.18125 -9.86858
ltibia 22.603
lfoot -23.7247 12.5724
ltoes -55.7592
56
root -0.776236 18.6621 6.2096 2.43698 -2.83614 -4.15253
lowerback 3.97776 0.620294 1.45272
upperback -1.46423 0.935545 0.789993
thorax -3.72939 0.440594 -0.0675141
lowerneck -8.71378 -1.31409 0.467777
upperneck 18.9052 -2.34011 2.2921
head 7.24845 -0.889533 0.460221
rclavicle 1.09021e-014 4.77083e-015
rhumerus -46.8511 -1.5792 -87.123
rradius 40.9203
rwrist 14.6791
rhand 8.09549 -29.6128
rfingers 7.12502
rthumb 33.3178 -56.5454
lclavicle 1.09021e-014 4.77083e-015
lhumerus -44.2503 -3.63064 92.0867
lradius 41.1926
lwrist 0.0670548
lhand -1.10252 -20.8286
lfingers 7.12502
lthumb 24.5339 7.61966
rfemur 7.48085 4.43566 18.6242
rtibia -3.18055e-015
rfoot -17.7234 -10.6254
rtoes -7.51151
lfemur -4.36641 -5.20001 -9.86475
ltibia 22.5956
lfoot -23.7504 12.542
ltoes -55.7398
57
root -0.774639 18.6621 6.21344 2.42718 -2.81342 -4.10064
lowerback 3.94375 0.614597 1.42134
upperback -1.47852 0.925176 0.774317
thorax -3.72527 0.435976 -0.0650197
lowerneck -8.757 -1.30966 0.415866
upperneck 18.9336 -2.33549 2.3362
head 7.26649 -0.88634 0.483275
rclavicle -1.30701e-014 5.56597e-015
rhumerus -46.8707 -1.56662 -87.1241
rradius 40.9403
rwrist 14.6927
rhand 8.11797 -29.6285
rfingers 7.12502
rthumb 33.3392 -56.5566
lclavicle -1.30701e-014 5.56597e-015
lhumerus -44.2345 -3.63925 92.0612
lradius 41.1699
lwrist 0.0707866
lhand -1.02988 -20.8654
lfingers 7.12502
lthumb 24.6036 7.57344
rfemur 7.50821 4.41167 18.5615
rtibia -4.77083e-015
rfoot -17.7378 -10.6158
rtoes -7.4206
lfemur -4.33368 -5.30735 -9.94112
ltibia 22.5797
lfoot -23.8059 12.5783
ltoes -55.7349
